#!OML:ASF F:\VICON\USERDATA\INSTALL\rory3\rory3.ASF
:FULLY-SPECIFIED
:DEGREES
917
root 0.537286 15.9215 0.266389 16.7195 4.14811 1.24383
lowerback 26.2492 0.701305 -1.53122
upperback 7.66446 0.706645 2.08873
thorax -6.07742 0.342019 2.95622
lowerneck -19.3871 -0.496312 -9.70053
upperneck 29.3802 2.924 -0.740114
head 13.0197 0.104655 1.84843
rclavicle 2.78299e-015 2.0276e-014
rhumerus -11.0986 32.6033 -75.1511
rradius 63.2921
rwrist 34.0442
rhand -31.9156 8.77201
rfingers 7.12502
rthumb -5.16721 -21.145
lclavicle 2.78299e-015 2.0276e-014
lhumerus -8.35019 -29.4053 89.5098
lradius 52.3083
lwrist -17.7776
lhand -21.1336 22.0469
lfingers 7.12502
lthumb 5.24536 51.962
rfemur -64.7827 -12.3472 20.7134
rtibia 79.2655
rfoot -10.3432 7.78811
rtoes -19.4282
lfemur -55.4362 0.93663 -14.0207
ltibia 59.4298
lfoot -18.4667 -7.68482
ltoes -21.9253
918
root 0.46934 15.9835 0.329106 16.3529 4.27171 1.1918
lowerback 25.8858 0.695996 -1.51273
upperback 7.56816 0.709887 2.1101
thorax -6.00574 0.343994 2.96671
lowerneck -19.3813 -0.421392 -9.72575
upperneck 29.5808 3.04873 -0.729068
head 13.0952 0.148602 1.87986
rclavicle -6.75868e-015 4.37326e-015
rhumerus -11.4239 32 -75.345
rradius 63.2258
rwrist 33.7846
rhand -31.6135 9.03909
rfingers 7.12502
rthumb -4.87553 -20.8848
lclavicle -6.75868e-015 4.37326e-015
lhumerus -8.78809 -29.1879 89.585
lradius 52.3117
lwrist -16.7814
lhand -20.287 22.4511
lfingers 7.12502
lthumb 6.06272 52.3444
rfemur -63.6568 -11.4809 19.3069
rtibia 78.3895
rfoot -11.5063 5.9811
rtoes -20.5436
lfemur -54.3331 0.705703 -13.6377
ltibia 58.5629
lfoot -18.6681 -7.35739
ltoes -22.7416
919
root 0.401533 16.0371 0.394373 16.1242 4.40548 1.19704
lowerback 25.4184 0.687216 -1.4804
upperback 7.43304 0.709217 2.08556
thorax -5.92371 0.344669 2.91962
lowerneck -19.4129 -0.37462 -9.68865
upperneck 29.7894 3.11231 -0.701868
head 13.1849 0.174277 1.89791
rclavicle 5.56597e-015 4.77083e-015
rhumerus -11.8764 31.2255 -75.6844
rradius 63.2002
rwrist 33.4527
rhand -31.7203 9.15899
rfingers 7.12502
rthumb -4.97868 -20.7625
lclavicle 5.56597e-015 4.77083e-015
lhumerus -9.21168 -29.0221 89.5883
lradius 52.29
lwrist -15.9357
lhand -19.7413 22.8253
lfingers 7.12502
lthumb 6.5896 52.7028
rfemur -62.5403 -10.5597 17.7731
rtibia 77.337
rfoot -12.4073 4.35105
rtoes -18.5371
lfemur -53.3887 0.404097 -13.2869
ltibia 57.6628
lfoot -18.9052 -7.11412
ltoes -23.0464
920
root 0.326339 16.1015 0.461276 15.778 4.50503 1.13608
lowerback 25.0144 0.629931 -1.62562
upperback 7.43485 0.611477 2.178
thorax -5.71677 0.295176 3.1315
lowerneck -19.8122 -0.225391 -9.69544
upperneck 30.0331 3.44632 -0.85341
head 13.3606 0.280133 1.90169
rclavicle -8.74653e-015 -4.37326e-015
rhumerus -11.9679 30.8559 -75.8272
rradius 63.1735
rwrist 32.9321
rhand -31.6777 9.2749
rfingers 7.12502
rthumb -4.9375 -20.6476
lclavicle -8.74653e-015 -4.37326e-015
lhumerus -9.44201 -28.2915 89.4825
lradius 52.3054
lwrist -15.3625
lhand -19.1983 23.195
lfingers 7.12502
lthumb 7.11373 53.0555
rfemur -61.1573 -9.37477 16.1544
rtibia 76.0909
rfoot -13.3471 2.52024
rtoes -15.4261
lfemur -52.1713 0.190751 -12.8601
ltibia 56.7441
lfoot -19.0721 -6.77917
ltoes -24.0956
921
root 0.258863 16.1816 0.553605 15.1221 4.1821 1.03079
lowerback 24.593 0.790911 -1.74585
upperback 7.49676 0.787436 2.15306
thorax -5.45169 0.375389 3.12032
lowerneck -19.8637 -0.117425 -9.4554
upperneck 30.4167 3.62668 -1.08097
head 13.5366 0.334985 1.80786
rclavicle 7.95139e-016 -7.95139e-015
rhumerus -12.3933 30.1502 -76.1363
rradius 63.1888
rwrist 32.4584
rhand -31.3023 9.40517
rfingers 7.12502
rthumb -4.57506 -20.5254
lclavicle 7.95139e-016 -7.95139e-015
lhumerus -9.98548 -27.9253 89.4648
lradius 52.4322
lwrist -14.9057
lhand -18.7614 23.5211
lfingers 7.12502
lthumb 7.53543 53.3669
rfemur -59.2354 -7.67757 14.375
rtibia 74.6188
rfoot -14.438 0.533904
rtoes -13.8537
lfemur -50.3614 0.191511 -12.4816
ltibia 55.7624
lfoot -19.1947 -6.31292
ltoes -25.1085
922
root 0.183809 16.2467 0.628326 14.6325 4.40481 1.02181
lowerback 24.2326 0.778119 -1.70244
upperback 7.46682 0.78865 2.19233
thorax -5.30515 0.374972 3.13667
lowerneck -19.9864 -0.0306063 -9.18971
upperneck 30.9562 3.83896 -1.44884
head 13.804 0.378609 1.66146
rclavicle -9.54166e-015 -7.95139e-016
rhumerus -12.75 29.4429 -76.3204
rradius 63.1827
rwrist 31.9292
rhand -30.8916 9.20934
rfingers 7.12502
rthumb -4.17843 -20.7294
lclavicle -9.54166e-015 -7.95139e-016
lhumerus -10.5335 -27.6647 89.508
lradius 52.5316
lwrist -14.3633
lhand -18.367 23.4032
lfingers 7.12502
lthumb 7.91609 53.235
rfemur -57.4768 -6.33994 12.6588
rtibia 73.1069
rfoot -15.4389 -1.92672
rtoes -14.2726
lfemur -48.9989 -0.185558 -12.0924
ltibia 54.7438
lfoot -19.0879 -6.19849
ltoes -25.0996
